# xmcd
#
# Track frame offsets: 
#        150
#        12321
#        27759
#        37630
#        52071
#        89098
#        108524
#        118253
#        130585
#        142873
#        157223
#        171565
#
# Disc length: 2425 seconds
#
# Revision: 0
# Processed by: cddbd v1.5.2PL0 Copyright (c) Steve Scherf et al.
# Submitted via: ExactAudioCopy v0.95b4
#
DISCID=a209770c
DTITLE=The Beatles  - Yellow Submarine Songtrack (Mono Ebbetts 2005)
DYEAR=1900
DGENRE=
TTITLE0=Yellow Submarine
TTITLE1=Only A Northern Song
TTITLE2=All Together Now
TTITLE3=Hey Bulldog
TTITLE4=It's All Too Much
TTITLE5=All You Need is Love
TTITLE6=Eleanor Rigby
TTITLE7=Nowhere Man
TTITLE8=When I'm Sixty Four
TTITLE9=Love You To
TTITLE10=Baby, You're a Rich Man
TTITLE11=Think for Yourself
EXTD=
EXTT0=
EXTT1=
EXTT2=
EXTT3=
EXTT4=
EXTT5=
EXTT6=
EXTT7=
EXTT8=
EXTT9=
EXTT10=
EXTT11=
PLAYORDER=
